<?xml version="1.0" encoding="utf-8"?>
<!-- Generator: Adobe Illustrator 25.1.0, SVG Export Plug-In . SVG Version: 6.00 Build 0)  -->
<svg version="1.1" xmlns="http://www.w3.org/2000/svg" xmlns:xlink="http://www.w3.org/1999/xlink" x="0px" y="0px"
	 viewBox="0 0 100 100" style="enable-background:new 0 0 100 100;" xml:space="preserve">
<style type="text/css">
	
		.st0{fill-rule:evenodd;clip-rule:evenodd;fill:#FFFF00;stroke:#000000;stroke-width:2;stroke-linecap:round;stroke-linejoin:round;stroke-miterlimit:10;}
	.st1{fill:#FFFF00;stroke:#000000;stroke-width:2;stroke-linecap:round;stroke-linejoin:round;stroke-miterlimit:10;}
	.st2{fill:#FFFF00;}
</style>
<g id="Layer_2">
	<polygon class="st0" points="18,65.4 18,61.3 74.1,8.1 74.1,11.1 81.6,20.3 25.1,74 	"/>
	<polygon class="st0" points="26.5,75.4 83.1,21.7 92.6,28.6 94.2,28.4 38.8,81 35.1,81.6 	"/>
	<path class="st1" d="M10,92.2c-0.9,0-1.8-0.5-2.3-1.3c-0.5-0.8-0.6-1.7-0.3-2.6L16,66.2v0l8.2,10.1l9.4,6.8L11,92
		C10.7,92.1,10.3,92.2,10,92.2z"/>
	<polygon class="st2" points="83.7,19.7 76.1,10.4 76.1,7.4 82.4,10.2 92,19.3 95.7,26.1 93.1,26.5 	"/>
</g>
<g id="Layer_1">
</g>
</svg>
